<?xml version="1.0" encoding="UTF-8"?>
<svg width="424pt" xmlns:xlink="http://www.w3.org/1999/xlink" xmlns="http://www.w3.org/2000/svg" height="160pt" viewBox="0 0 424 160" >
 <g transform="translate(218.103, 20.3994)" style="fill:#9c9e9f; fill-rule:nonzero; stroke:none; stroke-width:1; stroke-linecap:butt; stroke-linejoin:miter; stroke-dasharray:none;" >
  <path d="M52.096 26.7002 C49.678 17.9863 41.71 11.582 32.225 11.582 C20.824 11.582 11.583 20.8242 11.583 32.2236 C11.583 41.7188 18.002 49.6953 26.731 52.1026 C28.38 38.8613 38.859 28.3682 52.096 26.7002 Z M37.982 64.3555 C37.982 64.3555 36.458 64.3643 32.183 64.3643 C14.408 64.3643 0 49.9561 0 32.1817 C0 14.4092 14.408 0 32.183 0 C49.956 0 64.365 14.4092 64.365 32.1817 C64.365 33.1358 64.357 37.9649 64.357 37.9649 C64.357 37.9649 58.431 37.9776 55.811 37.9776 C45.983 37.9776 37.977 45.9444 37.977 55.7735 C37.977 59.4854 37.982 64.3555 37.982 64.3555 Z" />
 </g>
 <g transform="translate(288.879, 20.377)" style="fill:#9c9e9f; fill-rule:nonzero; stroke:none; stroke-width:1; stroke-linecap:butt; stroke-linejoin:miter; stroke-dasharray:none;" >
  <path d="M52.096 26.7001 C49.678 17.9873 41.709 11.583 32.225 11.583 C20.825 11.583 11.583 20.8242 11.583 32.2246 C11.583 41.7197 18.002 49.6953 26.732 52.1035 C28.38 38.8623 38.86 28.3691 52.096 26.7001 Z M37.983 64.3554 C37.983 64.3554 36.458 64.3662 32.184 64.3662 C14.409 64.3662 0 49.957 0 32.1826 C0 14.4091 14.409 0 32.184 0 C49.956 0 64.366 14.4091 64.366 32.1826 C64.366 33.1367 64.358 37.9648 64.358 37.9648 C64.358 37.9648 58.431 37.9785 55.811 37.9785 C45.984 37.9785 37.977 45.9453 37.977 55.7744 C37.977 59.4843 37.983 64.3554 37.983 64.3554 Z" />
 </g>
 <g transform="translate(0, 20.46)" style="fill:#f8b322; fill-rule:nonzero; stroke:none; stroke-width:1; stroke-linecap:butt; stroke-linejoin:miter; stroke-dasharray:none;" >
  <path d="M0.947266 52.1084 C0.947266 52.1084 45.9102 52.0957 48.8857 52.0957 C52.8555 52.0957 56.0732 48.8789 56.0732 44.9091 C56.0732 40.9404 52.8555 37.7216 48.8857 37.7216 C46.1475 37.7216 27.5898 37.7236 18.8613 37.7226 C8.44434 37.7226 0 29.2783 0 18.8613 C0 8.4443 8.44434 0 18.8613 0 C27.834 0 56.4775 0.0039 56.4775 0.0039 C56.4775 0.0039 56.4775 11.6963 56.4775 11.6963 C56.4775 11.6963 21.9111 11.6748 18.8613 11.6748 C14.8926 11.6748 11.6738 14.8916 11.6738 18.8613 C11.6738 22.83 14.8926 26.0488 18.8613 26.0488 C21.6426 26.0488 40.3066 26.0478 48.8857 26.0478 C59.3027 26.0478 67.748 34.4921 67.748 44.9091 C67.748 55.3252 59.3027 63.7705 48.8857 63.7705 C40.4229 63.7705 0.947266 63.7627 0.947266 63.7627 C0.947266 63.7627 0.947266 52.1084 0.947266 52.1084 Z" />
 </g>
 <g transform="translate(72.0977, 20.4346)" style="fill:#f8b322; fill-rule:nonzero; stroke:none; stroke-width:1; stroke-linecap:butt; stroke-linejoin:miter; stroke-dasharray:none;" >
  <path d="M52.7713 139.565 C52.7713 139.565 52.7713 32.1709 52.7713 32.1709 C52.7713 29.3183 52.2293 26.6552 51.1503 24.1865 C50.0693 21.7177 48.5653 19.5195 46.6363 17.5908 C44.7863 15.7392 42.6253 14.2744 40.1563 13.1924 C37.6873 12.1123 35.0243 11.5722 32.1713 11.5722 C29.2383 11.5722 26.539 12.1123 24.0712 13.1924 C21.6005 14.2744 19.4414 15.7392 17.5908 17.5908 C15.7382 19.5195 14.2714 21.7177 13.1923 24.1865 C12.1123 26.6552 11.5732 29.3183 11.5732 32.1709 C11.5732 35.0263 12.1123 37.708 13.1923 40.2138 C14.2714 42.7217 15.7382 44.9033 17.5908 46.7539 C19.4414 48.6054 21.6005 50.0713 24.0712 51.1504 C26.539 52.2324 29.2383 52.7705 32.1713 52.7705 C32.1713 52.7705 32.1713 64.3427 32.1713 64.3427 C27.6962 64.3427 23.5097 63.5166 19.6152 61.8545 C15.7197 60.1972 12.3046 57.9033 9.374 54.9707 C6.4404 52.0371 4.1455 48.624 2.4882 44.7285 C0.8291 40.833 0 36.6465 0 32.1709 C0 27.7754 0.8291 23.6279 2.4882 19.7304 C4.1455 15.8359 6.4404 12.4228 9.374 9.4902 C12.3046 6.5595 15.7197 4.2441 19.6152 2.5449 C23.5097 0.8496 27.6962 0 32.1713 0 C36.5693 0 40.7153 0.8496 44.6123 2.5449 C48.5073 4.2441 51.9213 6.5595 54.8533 9.4902 C57.7843 12.4228 60.0983 15.8359 61.7973 19.7304 C63.4933 23.6279 64.3433 27.7754 64.3433 32.1709 C64.3433 32.1709 64.3433 139.565 64.3433 139.565 C64.3433 139.565 52.7713 139.565 52.7713 139.565 Z" />
 </g>
 <g transform="translate(145.698, 20.4346)" style="fill:#f8b322; fill-rule:nonzero; stroke:none; stroke-width:1; stroke-linecap:butt; stroke-linejoin:miter; stroke-dasharray:none;" >
  <path d="M32.172 64.3427 C27.696 64.3427 23.531 63.5166 19.674 61.8545 C15.814 60.1972 12.421 57.9033 9.49 54.9707 C6.557 52.0371 4.241 48.624 2.546 44.7285 C0.848 40.833 0 36.6465 0 32.1709 C0 32.1709 0 0 0 0 C0 0 11.572 0 11.572 0 C11.572 0 11.572 32.1709 11.572 32.1709 C11.572 35.1045 12.111 37.8047 13.193 40.2724 C14.272 42.7422 15.739 44.9033 17.59 46.7539 C19.518 48.6054 21.717 50.0713 24.187 51.1504 C26.655 52.2324 29.317 52.7705 32.172 52.7705 C35.025 52.7705 37.687 52.2324 40.157 51.1504 C42.624 50.0713 44.823 48.6054 46.753 46.7539 C48.604 44.9033 50.069 42.7422 51.151 40.2724 C52.231 37.8047 52.771 35.1045 52.771 32.1709 C52.771 32.1709 52.771 0 52.771 0 C52.771 0 64.344 0 64.344 0 C64.344 0 64.344 32.1709 64.344 32.1709 C64.344 36.6465 63.513 40.833 61.855 44.7285 C60.195 48.624 57.9 52.0371 54.971 54.9707 C52.035 57.9033 48.623 60.1972 44.728 61.8545 C40.831 63.5166 36.646 64.3427 32.172 64.3427 Z" />
 </g>
 <g transform="translate(359.556, 0.644531)" style="fill:#f8b322; fill-rule:nonzero; stroke:none; stroke-width:1; stroke-linecap:butt; stroke-linejoin:miter; stroke-dasharray:none;" >
  <path d="M32.17 84.1328 C27.696 84.1328 23.509 83.3067 19.613 81.6446 C15.717 79.9873 12.305 77.6934 9.375 74.7608 C6.443 71.8272 4.147 68.4141 2.488 64.5186 C0.828 60.6231 0 56.4366 0 51.961 C0 47.5655 0.828 43.418 2.488 39.5205 C4.147 35.626 6.443 32.2129 9.375 29.2803 C12.305 26.3496 15.717 24.0342 19.613 22.335 C23.509 20.6397 27.696 19.7901 32.17 19.7901 C32.17 19.7901 32.17 31.3623 32.17 31.3623 C29.315 31.3623 26.652 31.9024 24.188 32.9825 C21.715 34.0645 19.52 35.5684 17.588 37.4961 C15.739 39.3487 14.272 41.5078 13.193 43.9766 C12.113 46.4453 11.574 49.1084 11.574 51.961 C11.574 54.8946 12.113 57.5948 13.193 60.0625 C14.272 62.5323 15.739 64.6934 17.588 66.544 C19.52 68.3955 21.715 69.8614 24.188 70.9405 C26.652 72.0225 29.315 72.5606 32.17 72.5606 C35.024 72.5606 37.688 72.0225 40.156 70.9405 C42.625 69.8614 44.824 68.3955 46.752 66.544 C48.605 64.6934 50.068 62.5323 51.151 60.0625 C52.229 57.5948 52.769 54.8946 52.769 51.961 C52.769 51.961 52.769 0 52.769 0 C52.769 0 64.342 0 64.342 0 C64.342 0 64.342 51.961 64.342 51.961 C64.342 56.4366 63.492 60.6231 61.796 64.5186 C60.1 68.4141 57.784 71.8272 54.855 74.7608 C51.921 77.6934 48.527 79.9873 44.668 81.6446 C40.813 83.3067 36.644 84.1328 32.17 84.1328 Z" />
 </g>
</svg>
